<?xml version="1.0" encoding="UTF-8" standalone="no"?>
<!-- Created with Inkscape (http://www.inkscape.org/) -->

<svg
   xmlns:dc="http://purl.org/dc/elements/1.1/"
   xmlns:cc="http://creativecommons.org/ns#"
   xmlns:rdf="http://www.w3.org/1999/02/22-rdf-syntax-ns#"
   xmlns:svg="http://www.w3.org/2000/svg"
   xmlns="http://www.w3.org/2000/svg"
   xmlns:sodipodi="http://sodipodi.sourceforge.net/DTD/sodipodi-0.dtd"
   xmlns:inkscape="http://www.inkscape.org/namespaces/inkscape"
   width="240"
   height="50"
   id="svg2"
   version="1.1"
   inkscape:version="0.48.2 r9819"
   sodipodi:docname="Anime+ (UniverseBlack).svg">
  <defs
     id="defs4" />
  <sodipodi:namedview
     id="base"
     pagecolor="#ffffff"
     bordercolor="#666666"
     borderopacity="1.0"
     inkscape:pageopacity="0.0"
     inkscape:pageshadow="2"
     inkscape:zoom="2.6603802"
     inkscape:cx="162.81161"
     inkscape:cy="36.930037"
     inkscape:document-units="px"
     inkscape:current-layer="layer1"
     showgrid="false"
     inkscape:window-width="1158"
     inkscape:window-height="597"
     inkscape:window-x="99"
     inkscape:window-y="1"
     inkscape:window-maximized="0" />
  <metadata
     id="metadata7">
    <rdf:RDF>
      <cc:Work
         rdf:about="">
        <dc:format>image/svg+xml</dc:format>
        <dc:type
           rdf:resource="http://purl.org/dc/dcmitype/StillImage" />
        <dc:title />
      </cc:Work>
    </rdf:RDF>
  </metadata>
  <g
     inkscape:label="レイヤー 1"
     inkscape:groupmode="layer"
     id="layer1"
     transform="translate(0,-1002.3622)">
    <path
       style="fill:#f25a55;fill-opacity:1"
       d="m 16.316994,1017.8082 2.869822,0 0,0.82 -2.869822,0 z"
       id="rect2996" />
    <path
       style="fill:#ff1509;fill-opacity:1;stroke:none"
       d="m 10.927467,1011.465 34.34,0 0,35.2898 -34.34,0 z"
       id="rect3766-7" />
    <path
       style="fill:#ff1709;fill-opacity:1"
       d="m 48.24321,1011.4652 34.34,0 0,35.29 -34.34,0 z"
       id="rect3766-7-8" />
    <path
       style="fill:#ff1709;fill-opacity:1"
       d="m 85.321083,1011.4652 34.339997,0 0,35.29 -34.339997,0 z"
       id="rect3766-7-8-2" />
    <path
       style="fill:#ff1709;fill-opacity:1"
       d="m 122.39899,1011.4652 34.34,0 0,35.29 -34.34,0 z"
       id="rect3766-7-8-7" />
    <path
       style="fill:#ff1709;fill-opacity:1"
       d="m 159.34402,1011.4652 34.34,0 0,35.29 -34.34,0 z"
       id="rect3766-7-8-71" />
    <path
       style="fill:#ff1509;fill-opacity:1;stroke:none"
       d="m 199.37161,1025.6501 35.0845,0 0,6.912 -35.0845,0 z"
       id="rect3910" />
    <path
       transform="matrix(0,1,-1,0,0,0)"
       style="fill:#ff1509;fill-opacity:1;stroke:none"
       d="m 1011.5452,-220.37 35.0845,0 0,6.91201 -35.0845,0 z"
       id="rect3910-2" />
    <text
       xml:space="preserve"
       style="font-size:32px;font-style:normal;font-weight:normal;line-height:125%;letter-spacing:0px;word-spacing:0px;fill:#000000;fill-opacity:1;stroke:none;font-family:Sans"
       x="207.45036"
       y="442.90198"
       id="text3934"
       sodipodi:linespacing="125%"><tspan
         sodipodi:role="line"
         id="tspan3936"
         x="207.45036"
         y="442.90198" /></text>
    <text
       xml:space="preserve"
       style="font-size:32px;font-style:normal;font-variant:normal;font-weight:normal;font-stretch:normal;line-height:125%;letter-spacing:0px;word-spacing:0px;fill:#000000;fill-opacity:1;stroke:none;font-family:Arial Black;-inkscape-font-specification:Arial Black"
       x="211.03854"
       y="441.70593"
       id="text3938"
       sodipodi:linespacing="125%"><tspan
         sodipodi:role="line"
         x="211.03854"
         y="441.70593"
         id="tspan3950" /></text>
    <text
       xml:space="preserve"
       style="font-size:32px;font-style:normal;font-variant:normal;font-weight:normal;font-stretch:normal;line-height:125%;letter-spacing:0px;word-spacing:0px;fill:#000000;fill-opacity:1;stroke:none;font-family:Arial Black;-inkscape-font-specification:Arial Black"
       x="208.24774"
       y="441.83881"
       id="text3970"
       sodipodi:linespacing="125%"><tspan
         sodipodi:role="line"
         id="tspan3972"
         x="208.24774"
         y="441.83881" /></text>
    <text
       xml:space="preserve"
       style="font-size:32px;font-style:normal;font-variant:normal;font-weight:bold;font-stretch:normal;line-height:125%;letter-spacing:0px;word-spacing:0px;fill:#000000;fill-opacity:1;stroke:none;font-family:Universe;-inkscape-font-specification:Sans Bold"
       x="206.65298"
       y="444.23093"
       id="text3974"
       sodipodi:linespacing="125%"><tspan
         sodipodi:role="line"
         id="tspan3976"
         x="206.65298"
         y="444.23093"
         style="font-style:oblique;font-weight:bold;-inkscape-font-specification:Sans Bold Oblique" /></text>
    <g
       transform="scale(0.99175377,1.0083148)"
       style="font-size:33.73860931px;font-style:normal;font-variant:normal;font-weight:normal;font-stretch:normal;line-height:125%;letter-spacing:0px;word-spacing:0px;fill:#ffffff;fill-opacity:1;stroke:none;font-family:Univers-Black;-inkscape-font-specification:Univers-Black"
       id="text3003">
      <path
         d="m 24.331939,1008.4142 8.232847,0 9.58165,24.4267 -7.692296,0 -1.619594,-4.521 -9.547672,0 -1.585616,4.521 -7.186752,0 9.817433,-24.4267 0,0 z m 6.647231,14.8791 -2.901471,-9.8525 -3.205209,9.8525 6.10668,0 0,0 z"
         style=""
         id="path3021" />
    </g>
    <g
       transform="scale(0.99232959,1.0077297)"
       style="font-size:33.75844193px;font-style:normal;font-variant:normal;font-weight:normal;font-stretch:normal;line-height:125%;letter-spacing:0px;word-spacing:0px;fill:#ffffff;fill-opacity:1;stroke:none;font-family:Univers-Black;-inkscape-font-specification:Univers-Black"
       id="text3787">
      <path
         d="m 53.951021,1009.0011 9.554315,0 8.270653,18.0608 0,-18.0608 6.11027,0 0,24.441 -9.587282,0 -8.237686,-18.3308 0,18.3308 -6.11027,0 0,-24.441 0,0 z"
         style=""
         id="path3018" />
    </g>
    <g
       transform="scale(0.99895599,1.0010451)"
       style="font-size:33.98386765px;font-style:normal;font-variant:normal;font-weight:normal;font-stretch:normal;line-height:125%;letter-spacing:0px;word-spacing:0px;fill:#ffffff;fill-opacity:1;stroke:none;font-family:Univers-Black;-inkscape-font-specification:Univers-Black"
       id="text3795">
      <path
         d="m 99.114714,1015.7374 6.967276,0 0,24.6043 -6.967276,0 0,-24.6043 0,0 z"
         style=""
         id="path3015" />
    </g>
    <g
       transform="scale(0.97454925,1.0261154)"
       style="font-size:33.15356445px;font-style:normal;font-variant:normal;font-weight:normal;font-stretch:normal;line-height:125%;letter-spacing:0px;word-spacing:0px;fill:#ffffff;fill-opacity:1;stroke:none;font-family:Univers-Black;-inkscape-font-specification:Univers-Black"
       id="text3803">
      <path
         d="m 128.99044,990.91647 10.70854,0 3.64741,15.91403 3.64641,-15.91403 10.44345,0 0,24.00313 -5.7357,0 0,-20.09063 -5.46961,20.09063 -6.26587,0 -5.23893,-20.09063 0,20.09063 -5.7357,0 0,-24.00313 0,0 z"
         style=""
         id="path3012" />
    </g>
    <g
       transform="scale(1.0471774,0.95494803)"
       style="font-size:35.62433243px;font-style:normal;font-variant:normal;font-weight:normal;font-stretch:normal;line-height:125%;letter-spacing:0px;word-spacing:0px;fill:#ffffff;fill-opacity:1;stroke:none;font-family:Univers-Black;-inkscape-font-specification:Univers-Black"
       id="text3811">
      <path
         d="m 158.74704,1064.7661 19.62992,0 0,5.3076 -12.32632,0 0,5.0586 11.50659,0 0,5.3445 -11.50659,0 0,5.0227 12.32632,0 0,5.0586 -19.62992,0 0,-25.792 0,0 z"
         style=""
         id="path3009" />
    </g>
  </g>
</svg>
